#define a0f66ebb3d244523b5d5b1e5c3b02124xl3hmvgIjgdrfDFC_width 16
#define a0f66ebb3d244523b5d5b1e5c3b02124xl3hmvgIjgdrfDFC_height 16
static char a0f66ebb3d244523b5d5b1e5c3b02124xl3hmvgIjgdrfDFC_bits[] = {
  0x00, 0x00, 0x10, 0x08, 0x30, 0x0C, 0xFC, 0x3F, 0x06, 0x60, 0xFE, 0x7F, 
  0xFE, 0x7F, 0x76, 0x60, 0x7E, 0x60, 0x5E, 0x60, 0x7E, 0x60, 0x06, 0x60, 
  0x06, 0x60, 0xFC, 0x3F, 0xF8, 0x1F, 0x00, 0x00, };
