#define 92afe1250d3d4db4b02a86914edc8b2d991oy4ezgGPCeSOJ_width 16
#define 92afe1250d3d4db4b02a86914edc8b2d991oy4ezgGPCeSOJ_height 16
static char 92afe1250d3d4db4b02a86914edc8b2d991oy4ezgGPCeSOJ_bits[] = {
  0x00, 0x00, 0x00, 0x00, 0x00, 0x00, 0xFC, 0x3F, 0x0E, 0x60, 0x1E, 0x78, 
  0x76, 0x6C, 0xE6, 0x63, 0x86, 0x61, 0x06, 0x60, 0x06, 0x60, 0x06, 0x60, 
  0xFC, 0x3F, 0x00, 0x00, 0x00, 0x00, 0x00, 0x00, };
