#define 1764461213399_width 16
#define 1764461213399_height 16
static char 1764461213399_bits[] = {
  0x00, 0x00, 0x00, 0x00, 0x00, 0x00, 0xE0, 0x07, 0x60, 0x06, 0x30, 0x0C, 
  0x30, 0x0C, 0x20, 0x04, 0xE0, 0x07, 0xC0, 0x07, 0xC0, 0x03, 0x80, 0x01, 
  0x00, 0x00, 0x00, 0x00, 0x00, 0x00, 0x00, 0x00, };
