#define ef6cb5d6c99d4d058896e7e0a16ca0e5SgBADCi3M2xuXkqH_width 16
#define ef6cb5d6c99d4d058896e7e0a16ca0e5SgBADCi3M2xuXkqH_height 16
static char ef6cb5d6c99d4d058896e7e0a16ca0e5SgBADCi3M2xuXkqH_bits[] = {
  0xE0, 0x01, 0xF0, 0x07, 0xF8, 0x0F, 0xF8, 0x3F, 0xFC, 0x7F, 0xFE, 0xFF, 
  0xFF, 0xFF, 0xFF, 0xFF, 0xFF, 0xFF, 0xFF, 0x7F, 0xFE, 0x7F, 0xFC, 0x1F, 
  0x00, 0x00, 0x00, 0x00, 0x48, 0x12, 0x48, 0x12, };
