#define 084b86e16ee04c819486d97c5d29f7a2AIp9gS1OAX7xtUMS_width 16
#define 084b86e16ee04c819486d97c5d29f7a2AIp9gS1OAX7xtUMS_height 16
static char 084b86e16ee04c819486d97c5d29f7a2AIp9gS1OAX7xtUMS_bits[] = {
  0x40, 0x02, 0xE0, 0x07, 0xC0, 0x03, 0x8C, 0x31, 0x8C, 0x31, 0xFE, 0x7F, 
  0xFE, 0x7F, 0x60, 0x06, 0x60, 0x06, 0xFE, 0x7F, 0xFE, 0x7F, 0x8C, 0x31, 
  0x8C, 0x31, 0xCC, 0x33, 0xE0, 0x07, 0x40, 0x02, };
