#define 0dd5c5390ae3466ae99e8a95e5388b988VJsbdDGxiCBKkx2_width 16
#define 0dd5c5390ae3466ae99e8a95e5388b988VJsbdDGxiCBKkx2_height 16
static char 0dd5c5390ae3466ae99e8a95e5388b988VJsbdDGxiCBKkx2_bits[] = {
  0x80, 0x01, 0x80, 0x01, 0x8C, 0x31, 0x1C, 0x38, 0xC8, 0x13, 0xE0, 0x07, 
  0xF0, 0x0F, 0xF7, 0xEF, 0xF7, 0xEF, 0xF0, 0x0F, 0xE0, 0x07, 0xC8, 0x13, 
  0x1C, 0x38, 0x8C, 0x31, 0x80, 0x01, 0x80, 0x01, };
