#define eadc0b045eee4d59e485efe82564ae286ygXqKIpzAz9lsak_width 16
#define eadc0b045eee4d59e485efe82564ae286ygXqKIpzAz9lsak_height 16
static char eadc0b045eee4d59e485efe82564ae286ygXqKIpzAz9lsak_bits[] = {
  0x06, 0x00, 0x0E, 0x00, 0x1C, 0x00, 0x38, 0x06, 0x78, 0x1E, 0x7C, 0x7C, 
  0xEF, 0xF0, 0xC7, 0xE1, 0xF0, 0x03, 0x78, 0x07, 0x18, 0x06, 0x80, 0x0F, 
  0xC0, 0x1F, 0x80, 0x39, 0x80, 0x70, 0x00, 0xF0, };
