#define ce9b40948bdd42dfb3f8bd3f31b262cftlsBPb8vgT5O6Aqb_width 16
#define ce9b40948bdd42dfb3f8bd3f31b262cftlsBPb8vgT5O6Aqb_height 16
static char ce9b40948bdd42dfb3f8bd3f31b262cftlsBPb8vgT5O6Aqb_bits[] = {
  0x00, 0x00, 0x00, 0x00, 0x00, 0x00, 0xE0, 0x0B, 0xF8, 0x0F, 0x1E, 0x38, 
  0x0E, 0xE0, 0xC2, 0xC3, 0xF0, 0x0F, 0x38, 0x1E, 0x18, 0x18, 0x80, 0x01, 
  0xC0, 0x03, 0xC0, 0x03, 0x80, 0x01, 0x00, 0x00, };
